<?xml version="1.0" encoding="UTF-8"?><svg id="Layer_1" xmlns="http://www.w3.org/2000/svg" viewBox="0 0 1080 1080"><defs><style>.cls-1{stroke:#8f1a1d;stroke-miterlimit:10;stroke-width:12.8px;}.cls-1,.cls-2{fill:#8f1a1d;}</style></defs><path class="cls-2" d="m815.2,906.8c-96.6,46.2-203.5,76.2-311.6,71.7-174.9-6.7-312.5-113.6-360.2-282.4-40.7-144.5-10.4-307.4,80.4-427.1,81.7-107.9,206.4-166.9,341.4-163.6,83.6,1.6,165.8,25.3,240.6,61.6,8.4,4.1,17.5,8.7,25.7,13.2,4.2,2.3,8.4,4.6,12.6,7-90-27.1-183.5-45.7-277.4-37-128,11.1-237.8,77.7-302.5,189-86.7,147.8-87.1,359.9,34.3,488.9,71.8,76.3,175.2,106.5,278,108.5,80,1.9,160.5-11.8,238.5-29.9h0Z"/><path class="cls-2" d="m448.9,895.5c64.1,3,128.7,2.2,191.7-10.1,86-16.5,167.9-56.2,222.8-125.7,74.3-92.6,90.3-224,54.5-335.8-43-136.3-153.8-224-295.9-238.7-28.5-3.3-57.2-3.7-86.1-2.8,134.3-43.2,281.2-10.2,374.8,98.4,122.4,139.8,130.3,368.4,10.1,511.9-116.5,139.6-307.9,156.1-472,102.7h0Z"/><path class="cls-1" d="m662.6,508.9c18.5-2,32.3-14.2,42.3-30,7.3-11.6,14.9-23.1,22.4-34.5,21.2-32.3,42.6-64.4,63.4-96.9,2.2-3.4,2.8-11.5.6-13.4-6.3-5.4-9.7,1.3-12.9,5.7-27,37.3-54,74.6-80.9,112-4.1,5.7-8.7,11.4-16.4,6.3-7.8-5.2-4.6-11.5-.2-17.3,15.2-20.2,30.4-40.4,45.6-60.6,13.4-17.8,27-35.5,39.8-53.8.7-1,1-2.4,1-3.9.1-4.7-4.5-8.3-9-7-1.2.3-2.3.8-3.3,1.3-2.7,1.5-4.3,5-6.3,7.7-18.4,23.8-36.8,47.7-55.3,71.4-9.4,12-18.5,24.3-28.7,35.5-1.5,1.6-4.2,2-7.1,2.3-3.6.3-7-2.1-7.7-5.7-.5-2.5-.9-5-.6-7.5.3-2.9,3.7-5.4,5.8-8,13.4-16.8,26.9-33.7,40.4-50.5.4.3.8.6,1.1.9,14.9-18.6,29.9-37,44.3-55.9.2-.2.3-.5.5-.8,2.7-5.2-2.7-11.1-8.5-9.6-1.3.3-2.6.7-3.9,1-.9.3-1.4,1.6-2.2,2.5-29.9,35.1-59.8,70.1-89.7,105.2-4.7,5.5-9.5,10.6-16.7,4.3-6.9-6-2.2-11.5,2-16.4,27.9-31.9,55.8-63.7,83.7-95.6,3.7-4.2,8.4-7.7,11.1-12.4.7-1.2.8-2.7.7-4.3-.2-3.8-3.6-6.9-7.4-6.7-1.7,0-3.2.3-4.3,1.2-6.3,5-11.7,11.3-17.3,17.3-25.6,26.9-49.9,55.2-77.1,80.4-26.8,24.9-43.3,52.3-37.3,90.3.2,1.1,0,2.3,0,3.4,1.7,14.7-3.6,27.3-12.1,38.4-8.4,11-16.8,22-25.2,33.1-7.8-14.8-15.1-31.2-28.8-50.7-40-57.1-99-143.4-147-198-8-9.1-23.1-4.3-24.4,7.8-3.2,32,.6,61.8.2,108.3-.1,12.4,1.7,24.8,5.5,36.6,8.6,26.5,15.2,33.1,76.9,75.9,40,27.7,64.9,39.4,87.6,59-14.5,18.7-29.2,37.2-44.4,55.3-30.6,36.2-64.5,69.7-96.8,104.5-11.6,12.5-23.6,24.7-33.7,38.4-9.3,12.6-14.4,27.4-4.7,42.7,13.1,20.8,38.5,24.3,55.5,5.2,15.9-17.8,28.7-38.5,41.8-58.5,35.1-53.4,72.5-105,112.3-154.9,0,0,.1.2.2.2l5.2,8.1c12.5,15.1,24.9,30.3,36.8,45.9,28.9,37.6,54.4,77.8,81.5,116.8,9.7,14,19.1,28.4,30.3,41.1,10.3,11.8,23.7,19.9,40.7,13.7,23.1-8.4,31.9-32.5,16.9-53.1-14-19.3-31.5-36.2-48.3-53.3-42-42.8-81.9-87.3-119.9-133.5-6.9-8.5-12.1-14.8-16-19.5,4.8-5.8,9.7-11.6,14.6-17.4,22.8-26.9,46.9-46,83.1-49.8Z"/></svg>